# xmcd CD database file
#
# Track frame offsets:
#	150
#	17503
#	42330
#	59017
#	80263
#	102090
#	127789
#	148623
#	164432
#	181699
#	200203
#	218105
#	245045
#
# Disc length: 3282 seconds
#
# Revision: 0
# Processed by: cddbd v1.5.1PL0 Copyright (c) Steve Scherf et al.
# Submitted via: cdripper 1.0.10
#
DISCID=b30cd00d
DTITLE=Kevin Welch - Beneath My Wheels
DYEAR=1999
DGENRE=Country
TTITLE0=Everybody's Gotta Walk
TTITLE1=Anna Lise Please
TTITLE2=Hill Contry Girl
TTITLE3=Fold Your Wings
TTITLE4=Beneath My Wheels
TTITLE5=Bastard Nation
TTITLE6=Every Little Lie
TTITLE7=Five Million One Thosand Miles
TTITLE8=Full Moon over Christiania
TTITLE9=Shores of Stone
TTITLE10=Faith Comes Later
TTITLE11=While I Was Loving You
TTITLE12=Unnamed
EXTD=YEAR: 1999
EXTT0=
EXTT1=
EXTT2=
EXTT3=
EXTT4=
EXTT5=
EXTT6=
EXTT7=
EXTT8=
EXTT9=
EXTT10=
EXTT11=
EXTT12=
PLAYORDER=
